<svg xmlns="http://www.w3.org/2000/svg" version="1.1" xmlns:xlink="http://www.w3.org/1999/xlink" xmlns:svgjs="http://svgjs.dev/svgjs" width="2000" height="1045" viewBox="0 0 2000 1045"><g transform="matrix(1,0,0,1,-1.2121196818594626,-0.36638274083372835)"><svg viewBox="0 0 396 207" data-background-color="#ffffff" preserveAspectRatio="xMidYMid meet" height="1045" width="2000" xmlns="http://www.w3.org/2000/svg" xmlns:xlink="http://www.w3.org/1999/xlink"><g id="tight-bounds" transform="matrix(1,0,0,1,0.24000030299180253,0.07257974303443859)"><svg viewBox="0 0 395.52 206.85484491978607" height="206.85484491978607" width="395.52"><g><svg viewBox="0 0 395.52 206.85484491978607" height="206.85484491978607" width="395.52"><g><svg viewBox="0 0 395.52 206.85484491978607" height="206.85484491978607" width="395.52"><g id="textblocktransform"><svg viewBox="0 0 395.52 206.85484491978607" height="206.85484491978607" width="395.52" id="textblock"><g><svg viewBox="0 0 395.52 206.85484491978607" height="206.85484491978607" width="395.52"><g transform="matrix(1,0,0,1,0,0)"><svg width="395.52" viewBox="3.640000104904175 -35.54999923706055 68.47000122070312 35.81999969482422" height="206.85484491978607" data-palette-color="#000000"><path d="M10.96-35.55L10.96 0 3.64 0 3.64-35.55 10.96-35.55ZM25.53-35.55L25.53 0 18.21 0 18.21-35.55 25.53-35.55ZM52.14 0L45.48-13.01 39.64-13.01 39.64 0 32.32 0 32.32-35.55 45.53-35.55Q51.83-35.55 55.24-32.74 58.66-29.93 58.66-24.8L58.66-24.8Q58.66-21.17 57.09-18.74 55.51-16.31 52.31-14.87L52.31-14.87 60-0.34 60 0 52.14 0ZM39.64-29.61L39.64-18.95 45.55-18.95Q48.31-18.95 49.82-20.35 51.34-21.75 51.34-24.22L51.34-24.22Q51.34-26.73 49.91-28.17 48.48-29.61 45.53-29.61L45.53-29.61 39.64-29.61ZM64.13-3.47L64.13-3.47Q64.13-5.15 65.26-6.2 66.4-7.25 68.11-7.25L68.11-7.25Q69.84-7.25 70.98-6.2 72.11-5.15 72.11-3.47L72.11-3.47Q72.11-1.81 70.99-0.77 69.87 0.27 68.11 0.27L68.11 0.27Q66.37 0.27 65.25-0.77 64.13-1.81 64.13-3.47Z" opacity="1" transform="matrix(1,0,0,1,0,0)" fill="#000000" class="undefined-text-0" data-fill-palette-color="primary" id="text-0"></path></svg></g></svg></g></svg></g></svg></g><g></g></svg></g><defs></defs></svg><rect width="395.52" height="206.85484491978607" fill="none" stroke="none" visibility="hidden"></rect></g></svg></g></svg>